# xmcd
#
# Track frame offsets: 
#        150
#        16725
#        32400
#        48752
#        63025
#        80862
#        103050
#        121375
#        135777
#        153927
#        170300
#        189132
#
# Disc length: 2937 seconds
#
# Revision: 2
# Processed by: cddbd v1.5.2PL0 Copyright (c) Steve Scherf et al.
# Submitted via: ExactAudioCopy v0.95a4
#
DISCID=800b770c
DTITLE=Alabama - Collections
DYEAR=2003
DGENRE=Country
TTITLE0=Mountain Music
TTITLE1=Down Home
TTITLE2=Jukebox In My Mind
TTITLE3=Southern Star
TTITLE4=Tar Top
TTITLE5=Pass It On Down
TTITLE6=My Home's In Alabama
TTITLE7=Say I
TTITLE8=Small Stuff
TTITLE9=We Made Love
TTITLE10=Gonna Have A Party
TTITLE11=When It All Goes South (Extended Version)
EXTD=Year: 2003\n\nTrack01 -  from the Album "Mountain Music" (1982]\n
EXTD=Track02 -  from the Album "Pass It On Down" (1990]\nTrack03 -  fr
EXTD=om the Album "Pass It on Down (1990]\nTrack04 -  from the Album "
EXTD=Southern Star" (1989]\nTrack05 -  from the Album "Just Us" (1987)
EXTD=\nTrack06 -  from the Album "Pass It on Down" (1990]\nTrack07 -  
EXTD=from the Album "My Home's In Alabama" (1980]\nTrack08 -  from the
EXTD=Album "In Pictures" (1995]\nTrack09 -  from the Album "Twentieth
EXTD=Century" (1999]\nTrack10 -  from the Album "Twentieth Century" (
EXTD=1999]\nTrack11 -  from the Album "Mountain Music" (1982]\nTrack12
EXTD=:  from the Album "When It All Goes South" (2001]\n\n\n\n
EXTT0=
EXTT1=
EXTT2=
EXTT3=
EXTT4=
EXTT5=
EXTT6=
EXTT7=
EXTT8=
EXTT9=
EXTT10=
EXTT11=
PLAYORDER=
